{"title":"BBC Proms 2012 - 9. Barenboim Conducts Beethoven Symphonies 1 &amp;a","uid":7464550,"size":1723006753,"categoryP":"video","categoryS":"music_videos","magnet":"?xt=urn:btih:705b3a623923684399638444a276f3995b07ca56&amp;dn=BBC+Proms+2012+-+9.+Barenboim+Conducts+Beethoven+Symphonies+1+%26a&amp;tr=udp%3A%2F%2Ftracker.openbittorrent.com%3A80&amp;tr=udp%3A%2F%2Fopen.demonii.com%3A1337&amp;tr=udp%3A%2F%2Ftracker.coppersurfer.tk%3A6969&amp;tr=udp%3A%2F%2Fexodus.desync.com%3A6969","seeders":1,"leechers":0,"uploader":"deandominic","files":3,"time":1342951676,"description":"Daniel Barenboim directs his first Beethoven symphony cycle in London - and becomes the first conductor since Henry Wood in 1942 to survey all nine symphonies in a single Proms season. \nHis dynamic West-Eastern Divan Orchestra - famously bringing together Arab and Israeli players to form less 'an orchestra for peace' than 'an orchestra against ignorance' - goes far beyond the symbolic in its goal of building bridges through music. \n\nExpect further fireworks as Barenboim pairs Beethoven's revolutionary classics with music by one of today's senior musical figures, the ever-innovative composer-conductor Pierre Boulez, with whom Barenboim first collaborated in the mid-1960s.\n\nBeethoven - Symphony No. 1 in C major (25 mins)\nPierre Boulez - Drive 2 (45 mins)\nBeethoven - Symphony No. 2 in D major (35 mins)\n\nFormat profile                           : Base Media\nCodec ID                                 : isom\nFile size                                : 1.60 GiB\nDuration                                 : 2h 32mn\nOverall bit rate mode                    : Constant\nOverall bit rate                         : 1 503 Kbps\n\nVideo\nID                                       : 1\nFormat                                   : AVC\nFormat/Info                              : Advanced Video Codec\nFormat profile                           : &lt;a class=&quot;__cf_email__&quot; href=&quot;/cdn-cgi/l/email-protection&quot; data-cfemail=&quot;87cae6eee9c7cbb4a9b7&quot;&gt;[email&amp;#160;protected]&lt;/a&gt;&lt;script cf-hash='f9e31' type=&quot;text/javascript&quot;&gt;\n/* &lt;![CDATA[ */!function(){try{var t=&quot;currentScript&quot;in document?document.currentScript:function(){for(var t=document.getElementsByTagName(&quot;script&quot;),e=t.length;e--;)if(t[e].getAttribute(&quot;cf-hash&quot;))return t[e]}();if(t&amp;&amp;t.previousSibling){var e,r,n,i,c=t.previousSibling,a=c.getAttribute(&quot;data-cfemail&quot;);if(a){for(e=&quot;&quot;,r=parseInt(a.substr(0,2),16),n=2;a.length-n;n+=2)i=parseInt(a.substr(n,2),16)^r,e+=String.fromCharCode(i);e=document.createTextNode(e),c.parentNode.replaceChild(e,c)}}}catch(u){}}();/* ]]&gt; */&lt;/script&gt;\nFormat settings, CABAC                   : Yes\nFormat settings, ReFrames                : 4 frames\nCodec ID                                 : avc1\nCodec ID/Info                            : Advanced Video Coding\nDuration                                 : 2h 32mn\nBit rate mode                            : Constant\nBit rate                                 : 1 404 Kbps\nWidth                                    : 832 pixels\nHeight                                   : 468 pixels\nDisplay aspect ratio                     : 16:9\nFrame rate mode                          : Constant\nFrame rate                               : 25.000 fps\nStandard                                 : PAL\nColor space                              : YUV\nChroma subsampling                       : 4:2:0\nBit depth                                : 8 bits\nScan type                                : Progressive\nBits/(Pixel*Frame)                       : 0.144\nStream size                              : 1.50 GiB (93%)\n\nAudio\nID                                       : 2\nFormat                                   : AAC\nFormat/Info                              : Advanced Audio Codec\nFormat profile                           : HE-AAC / LC\nCodec ID                                 : 40\nDuration                                 : 2h 32mn\nBit rate mode                            : Constant\nBit rate                                 : 96.0 Kbps\nChannel(s)                               : 2 channels\nChannel positions                        : Front: L R\nSampling rate                            : 48.0 KHz / 24.0 KHz\nCompression mode                         : Lossy\nStream size                              : 104 MiB (6%)\n","torrent":{"xt":"urn:btih:705b3a623923684399638444a276f3995b07ca56","amp;dn":"BBC+Proms+2012+-+9.+Barenboim+Conducts+Beethoven+Symphonies+1+%26a","amp;tr":["udp%3A%2F%2Ftracker.openbittorrent.com%3A80","udp%3A%2F%2Fopen.demonii.com%3A1337","udp%3A%2F%2Ftracker.coppersurfer.tk%3A6969","udp%3A%2F%2Fexodus.desync.com%3A6969"],"infoHash":"705b3a623923684399638444a276f3995b07ca56","infoHashBuffer":{"type":"Buffer","data":[112,91,58,98,57,35,104,67,153,99,132,68,162,118,243,153,91,7,202,86]},"announce":[],"urlList":[]}}